<svg width="331" height="72" viewBox="0 0 331 72" fill="none" xmlns="http://www.w3.org/2000/svg">
<path d="M7.984 71V1.976H18.448V71H7.984ZM0.976 71V66.584C0.976 65.944 1.136 65.432 1.456 65.048C1.776 64.664 2.256 64.408 2.896 64.28L9.52 62.84L10.672 71H0.976ZM15.76 71L16.912 62.84L23.632 64.28C24.208 64.408 24.656 64.664 24.976 65.048C25.36 65.432 25.552 65.944 25.552 66.584V71H15.76ZM10.672 1.976L9.52 10.136L2.896 8.696C2.256 8.568 1.776 8.312 1.456 7.928C1.136 7.544 0.976 7.032 0.976 6.392V1.976H10.672ZM25.552 1.976V6.392C25.552 7.032 25.36 7.544 24.976 7.928C24.656 8.312 24.208 8.568 23.632 8.696L16.912 10.136L15.76 1.976H25.552ZM49.6848 71.768C45.7168 71.768 42.6448 70.648 40.4688 68.408C38.2928 66.168 37.2048 63 37.2048 58.904V29.816H31.6367C31.0608 29.816 30.5808 29.656 30.1968 29.336C29.8128 29.016 29.6208 28.504 29.6208 27.8V23.96L37.5888 22.808L39.7968 8.408C39.9888 7.192 40.6928 6.584 41.9088 6.584H46.8048V22.904H60.4368V29.816H46.8048V58.328C46.8048 60.184 47.2528 61.592 48.1488 62.552C49.1088 63.512 50.3568 63.992 51.8928 63.992C52.5968 63.992 53.3008 63.832 54.0048 63.512C54.7728 63.128 55.4768 62.776 56.1168 62.456C56.7568 62.072 57.2688 61.88 57.6528 61.88C58.1008 61.88 58.5168 62.168 58.9008 62.744L61.7808 67.352C60.1808 68.696 58.3248 69.784 56.2128 70.616C54.1008 71.384 51.9248 71.768 49.6848 71.768ZM80.9943 71.768C78.3703 71.768 76.0023 71.288 73.8903 70.328C71.7783 69.304 70.1143 67.832 68.8983 65.912C67.6823 63.928 67.0742 61.528 67.0742 58.712C67.0742 56.792 67.5863 54.936 68.6103 53.144C69.6983 51.352 71.3943 49.752 73.6983 48.344C76.0663 47 79.1383 45.88 82.9143 44.984C86.6903 44.024 91.3623 43.48 96.9303 43.352V39.896C96.9303 36.248 96.1303 33.528 94.5303 31.736C92.9943 29.88 90.7543 28.952 87.8103 28.952C86.0823 28.952 84.3223 29.368 82.5303 30.2C80.8023 31.032 79.2023 31.864 77.7303 32.696C76.2583 33.464 75.0423 33.848 74.0823 33.848C73.3783 33.848 72.8023 33.688 72.3543 33.368C71.9063 32.984 71.5223 32.568 71.2023 32.12L69.4743 29.048C72.2263 26.424 75.2023 24.472 78.4023 23.192C81.6023 21.912 85.1223 21.272 88.9623 21.272C92.6743 21.272 95.8103 22.04 98.3703 23.576C100.93 25.112 102.882 27.288 104.226 30.104C105.634 32.92 106.338 36.184 106.338 39.896V71H102.018C101.122 71 100.386 70.872 99.8103 70.616C99.2983 70.296 98.9143 69.688 98.6583 68.792L97.6983 64.568C95.1383 66.872 92.5783 68.664 90.0183 69.944C87.5223 71.16 84.5143 71.768 80.9943 71.768ZM83.8743 65.048C86.5623 65.048 88.9303 64.536 90.9783 63.512C93.0263 62.424 95.0103 60.888 96.9303 58.904V49.4C93.7303 49.464 90.8503 49.688 88.2903 50.072C85.7943 50.456 83.6503 51 81.8583 51.704C80.0663 52.408 78.6903 53.304 77.7303 54.392C76.8343 55.416 76.3863 56.696 76.3863 58.232C76.3863 60.664 77.0903 62.424 78.4983 63.512C79.9063 64.536 81.6983 65.048 83.8743 65.048ZM103.554 71L104.706 62.84L111.426 64.28C112.002 64.408 112.45 64.664 112.77 65.048C113.154 65.432 113.346 65.944 113.346 66.584V71H103.554ZM124.415 71V0.0559978H134.015V71H124.415ZM117.407 71V66.584C117.407 65.944 117.567 65.432 117.887 65.048C118.207 64.664 118.687 64.408 119.327 64.28L125.951 62.84L127.103 71H117.407ZM131.231 71L132.383 62.84L139.103 64.28C139.679 64.408 140.127 64.664 140.447 65.048C140.767 65.432 140.927 65.944 140.927 66.584V71H131.231ZM127.103 0.0559978L125.951 8.216L119.327 6.776C118.687 6.648 118.207 6.392 117.887 6.008C117.567 5.624 117.407 5.112 117.407 4.472V0.0559978H127.103ZM152.446 71V22.136H162.046V71H152.446ZM145.438 71V66.584C145.438 65.944 145.598 65.432 145.918 65.048C146.238 64.664 146.718 64.408 147.358 64.28L153.982 62.84L155.134 71H145.438ZM159.262 71L160.414 62.84L167.134 64.28C167.71 64.408 168.158 64.664 168.478 65.048C168.798 65.432 168.958 65.944 168.958 66.584V71H159.262ZM155.134 22.136L153.982 30.296L147.358 28.856C146.718 28.728 146.238 28.472 145.918 28.088C145.598 27.704 145.438 27.192 145.438 26.552V22.136H155.134ZM157.15 13.592C155.422 13.592 153.886 12.952 152.542 11.672C151.262 10.392 150.622 8.888 150.622 7.16C150.622 5.368 151.262 3.832 152.542 2.55199C153.886 1.208 155.422 0.535997 157.15 0.535997C158.942 0.535997 160.478 1.208 161.758 2.55199C163.102 3.832 163.774 5.368 163.774 7.16C163.774 8.888 163.102 10.392 161.758 11.672C160.478 12.952 158.942 13.592 157.15 13.592ZM187.494 71.768C184.87 71.768 182.502 71.288 180.39 70.328C178.278 69.304 176.614 67.832 175.398 65.912C174.182 63.928 173.574 61.528 173.574 58.712C173.574 56.792 174.086 54.936 175.11 53.144C176.198 51.352 177.894 49.752 180.198 48.344C182.566 47 185.638 45.88 189.414 44.984C193.19 44.024 197.862 43.48 203.43 43.352V39.896C203.43 36.248 202.63 33.528 201.03 31.736C199.494 29.88 197.254 28.952 194.31 28.952C192.582 28.952 190.822 29.368 189.03 30.2C187.302 31.032 185.702 31.864 184.23 32.696C182.758 33.464 181.542 33.848 180.582 33.848C179.878 33.848 179.302 33.688 178.854 33.368C178.406 32.984 178.022 32.568 177.702 32.12L175.974 29.048C178.726 26.424 181.702 24.472 184.902 23.192C188.102 21.912 191.622 21.272 195.462 21.272C199.174 21.272 202.31 22.04 204.87 23.576C207.43 25.112 209.382 27.288 210.726 30.104C212.134 32.92 212.838 36.184 212.838 39.896V71H208.518C207.622 71 206.886 70.872 206.31 70.616C205.798 70.296 205.414 69.688 205.158 68.792L204.198 64.568C201.638 66.872 199.078 68.664 196.518 69.944C194.022 71.16 191.014 71.768 187.494 71.768ZM190.374 65.048C193.062 65.048 195.43 64.536 197.478 63.512C199.526 62.424 201.51 60.888 203.43 58.904V49.4C200.23 49.464 197.35 49.688 194.79 50.072C192.294 50.456 190.15 51 188.358 51.704C186.566 52.408 185.19 53.304 184.23 54.392C183.334 55.416 182.886 56.696 182.886 58.232C182.886 60.664 183.59 62.424 184.998 63.512C186.406 64.536 188.198 65.048 190.374 65.048ZM210.054 71L211.206 62.84L217.926 64.28C218.502 64.408 218.95 64.664 219.27 65.048C219.654 65.432 219.846 65.944 219.846 66.584V71H210.054ZM230.915 71V22.136H236.675C238.019 22.136 238.851 22.776 239.171 24.056L239.843 28.952C241.955 26.648 244.291 24.824 246.851 23.48C249.411 22.072 252.387 21.368 255.779 21.368C259.363 21.368 262.339 22.136 264.707 23.672C267.139 25.208 268.995 27.384 270.275 30.2C271.555 33.016 272.195 36.248 272.195 39.896V71H262.499V39.896C262.499 36.44 261.699 33.752 260.099 31.832C258.563 29.912 256.163 28.952 252.899 28.952C250.531 28.952 248.291 29.528 246.179 30.68C244.131 31.768 242.243 33.304 240.515 35.288V71H230.915ZM223.907 71V66.584C223.907 65.944 224.067 65.432 224.387 65.048C224.707 64.664 225.187 64.408 225.827 64.28L232.451 62.84L233.603 71H223.907ZM237.731 71L238.883 62.84L245.603 64.28C246.179 64.408 246.627 64.664 246.947 65.048C247.267 65.432 247.427 65.944 247.427 66.584V71H237.731ZM269.411 71L270.563 62.84L277.283 64.28C277.859 64.408 278.307 64.664 278.627 65.048C278.947 65.432 279.107 65.944 279.107 66.584V71H269.411ZM233.603 22.136L232.451 30.296L225.827 28.856C225.187 28.728 224.707 28.472 224.387 28.088C224.067 27.704 223.907 27.192 223.907 26.552V22.136H233.603ZM307.251 21.368C312.115 21.368 316.275 22.424 319.731 24.536C323.251 26.584 325.939 29.496 327.795 33.272C329.715 37.048 330.675 41.464 330.675 46.52C330.675 51.512 329.715 55.928 327.795 59.768C325.939 63.544 323.251 66.488 319.731 68.6C316.275 70.648 312.115 71.672 307.251 71.672C302.451 71.672 298.259 70.648 294.674 68.6C291.155 66.488 288.403 63.544 286.419 59.768C284.499 55.928 283.539 51.512 283.539 46.52C283.539 41.464 284.499 37.048 286.419 33.272C288.403 29.496 291.155 26.584 294.674 24.536C298.259 22.424 302.451 21.368 307.251 21.368ZM307.251 64.28C311.795 64.28 315.187 62.744 317.427 59.672C319.667 56.6 320.787 52.248 320.787 46.616C320.787 42.776 320.275 39.544 319.251 36.92C318.291 34.296 316.787 32.312 314.739 30.968C312.755 29.56 310.259 28.856 307.251 28.856C304.115 28.856 301.523 29.56 299.475 30.968C297.427 32.376 295.923 34.424 294.963 37.112C294.003 39.736 293.523 42.904 293.523 46.616C293.523 52.056 294.643 56.376 296.883 59.576C299.123 62.712 302.579 64.28 307.251 64.28Z" fill="#DA1B2B"/>
</svg>
